<svg xmlns="http://www.w3.org/2000/svg" xmlns:xlink="http://www.w3.org/1999/xlink" contentStyleType="text/css" data-diagram-type="CLASS" height="826px" preserveAspectRatio="none" style="width:1413px;height:826px;background:#FFFFFF;" version="1.1" viewBox="0 0 1413 826" width="1413px" zoomAndPan="magnify"><title>Fachmodelle im Arbeitsspeicher</title><defs/><g><g class="title" data-source-line="25"><text fill="#000000" font-family="DejaVu Sans" font-size="14" font-weight="bold" lengthAdjust="spacing" textLength="253.6201" x="575.6899" y="22.9951">Fachmodelle im Arbeitsspeicher</text></g><!--class Album--><g class="entity" data-entity="Album" data-source-line="27" data-uid="ent0002" id="entity_Album"><rect fill="#F1F7F8" height="206.3125" rx="4" ry="4" style="stroke:#176C78;stroke-width:0.5;" width="354.125" x="745.5" y="475.7969"/><ellipse cx="891.0735" cy="491.7969" fill="#ADD1B2" rx="11" ry="11" style="stroke:#181818;stroke-width:1;"/><path d="M894.0422,497.4375 Q893.4641,497.7344 892.8235,497.875 Q892.1829,498.0313 891.4797,498.0313 Q888.9797,498.0313 887.6516,496.3906 Q886.3391,494.7344 886.3391,491.6094 Q886.3391,488.4844 887.6516,486.8281 Q888.9797,485.1719 891.4797,485.1719 Q892.1829,485.1719 892.8235,485.3281 Q893.4797,485.4844 894.0422,485.7813 L894.0422,488.5 Q893.4172,487.9219 892.8235,487.6563 Q892.2297,487.375 891.6047,487.375 Q890.261,487.375 889.5735,488.4531 Q888.886,489.5156 888.886,491.6094 Q888.886,493.7031 889.5735,494.7813 Q890.261,495.8438 891.6047,495.8438 Q892.2297,495.8438 892.8235,495.5781 Q893.4172,495.2969 894.0422,494.7188 L894.0422,497.4375 Z " fill="#000000"/><text fill="#000000" font-family="DejaVu Sans" font-size="17" lengthAdjust="spacing" textLength="54.478" x="911.5735" y="497.6821">Album</text><line style="stroke:#176C78;stroke-width:0.5;" x1="746.5" x2="1098.625" y1="507.7969" y2="507.7969"/><text fill="#000000" font-family="DejaVu Sans" font-size="17" lengthAdjust="spacing" textLength="91.624" x="751.5" y="527.5767">+id: String</text><text fill="#000000" font-family="DejaVu Sans" font-size="17" lengthAdjust="spacing" textLength="109.3462" x="751.5" y="547.3657">+titel: String</text><text fill="#000000" font-family="DejaVu Sans" font-size="17" lengthAdjust="spacing" textLength="284.1523" x="751.5" y="567.1548">+kuenstlerListe: List&lt;Kuenstler&gt;</text><text fill="#000000" font-family="DejaVu Sans" font-size="17" lengthAdjust="spacing" textLength="285.9453" x="751.5" y="586.9438">+erscheinungsdatum: DateTime?</text><text fill="#000000" font-family="DejaVu Sans" font-size="17" lengthAdjust="spacing" textLength="156.5444" x="751.5" y="606.7329">+coverUrl: String?</text><text fill="#000000" font-family="DejaVu Sans" font-size="17" lengthAdjust="spacing" textLength="211.8691" x="751.5" y="626.522">+metadatenFehlen: bool</text><text fill="#000000" font-family="DejaVu Sans" font-size="17" lengthAdjust="spacing" textLength="194.0972" x="751.5" y="646.311">+jahr: int? {readOnly}</text><line style="stroke:#176C78;stroke-width:0.5;" x1="746.5" x2="1098.625" y1="654.3203" y2="654.3203"/><text fill="#000000" font-family="DejaVu Sans" font-size="17" lengthAdjust="spacing" textLength="342.125" x="751.5" y="674.1001">+ausRessourcen(id, ressourcen): Album</text></g><!--class Kuenstler--><g class="entity" data-entity="Kuenstler" data-source-line="37" data-uid="ent0003" id="entity_Kuenstler"><rect fill="#F1F7F8" height="87.5781" rx="4" ry="4" style="stroke:#176C78;stroke-width:0.5;" width="136.3208" x="1270" y="315.7969"/><ellipse cx="1295.562" cy="331.7969" fill="#ADD1B2" rx="11" ry="11" style="stroke:#181818;stroke-width:1;"/><path d="M1298.5308,337.4375 Q1297.9527,337.7344 1297.312,337.875 Q1296.6714,338.0313 1295.9683,338.0313 Q1293.4683,338.0313 1292.1402,336.3906 Q1290.8277,334.7344 1290.8277,331.6094 Q1290.8277,328.4844 1292.1402,326.8281 Q1293.4683,325.1719 1295.9683,325.1719 Q1296.6714,325.1719 1297.312,325.3281 Q1297.9683,325.4844 1298.5308,325.7813 L1298.5308,328.5 Q1297.9058,327.9219 1297.312,327.6563 Q1296.7183,327.375 1296.0933,327.375 Q1294.7495,327.375 1294.062,328.4531 Q1293.3745,329.5156 1293.3745,331.6094 Q1293.3745,333.7031 1294.062,334.7813 Q1294.7495,335.8438 1296.0933,335.8438 Q1296.7183,335.8438 1297.312,335.5781 Q1297.9058,335.2969 1298.5308,334.7188 L1298.5308,337.4375 Z " fill="#000000"/><text fill="#000000" font-family="DejaVu Sans" font-size="17" lengthAdjust="spacing" textLength="80.8496" x="1311.9092" y="337.6821">Kuenstler</text><line style="stroke:#176C78;stroke-width:0.5;" x1="1271" x2="1405.3208" y1="347.7969" y2="347.7969"/><text fill="#000000" font-family="DejaVu Sans" font-size="17" lengthAdjust="spacing" textLength="91.624" x="1276" y="367.5767">+id: String</text><text fill="#000000" font-family="DejaVu Sans" font-size="17" lengthAdjust="spacing" textLength="124.3208" x="1276" y="387.3657">+name: String</text><line style="stroke:#176C78;stroke-width:0.5;" x1="1271" x2="1405.3208" y1="395.375" y2="395.375"/></g><!--class KuenstlerOrdner--><g class="entity" data-entity="KuenstlerOrdner" data-source-line="41" data-uid="ent0004" id="entity_KuenstlerOrdner"><rect fill="#F1F7F8" height="146.9453" rx="4" ry="4" style="stroke:#176C78;stroke-width:0.5;" width="314.9785" x="54" y="234.2969"/><ellipse cx="137.1226" cy="250.2969" fill="#ADD1B2" rx="11" ry="11" style="stroke:#181818;stroke-width:1;"/><path d="M140.0913,255.9375 Q139.5132,256.2344 138.8726,256.375 Q138.2319,256.5313 137.5288,256.5313 Q135.0288,256.5313 133.7007,254.8906 Q132.3882,253.2344 132.3882,250.1094 Q132.3882,246.9844 133.7007,245.3281 Q135.0288,243.6719 137.5288,243.6719 Q138.2319,243.6719 138.8726,243.8281 Q139.5288,243.9844 140.0913,244.2813 L140.0913,247 Q139.4663,246.4219 138.8726,246.1563 Q138.2788,245.875 137.6538,245.875 Q136.3101,245.875 135.6226,246.9531 Q134.9351,248.0156 134.9351,250.1094 Q134.9351,252.2031 135.6226,253.2813 Q136.3101,254.3438 137.6538,254.3438 Q138.2788,254.3438 138.8726,254.0781 Q139.4663,253.7969 140.0913,253.2188 L140.0913,255.9375 Z " fill="#000000"/><text fill="#000000" font-family="DejaVu Sans" font-size="17" lengthAdjust="spacing" textLength="140.2334" x="157.6226" y="256.1821">KuenstlerOrdner</text><line style="stroke:#176C78;stroke-width:0.5;" x1="55" x2="367.9785" y1="266.2969" y2="266.2969"/><text fill="#000000" font-family="DejaVu Sans" font-size="17" lengthAdjust="spacing" textLength="185.7715" x="60" y="286.0767">+kuenstler: Kuenstler</text><text fill="#000000" font-family="DejaVu Sans" font-size="17" lengthAdjust="spacing" textLength="185.2236" x="60" y="305.8657">+alben: List&lt;Album&gt;</text><text fill="#000000" font-family="DejaVu Sans" font-size="17" lengthAdjust="spacing" textLength="302.9785" x="60" y="325.6548">+einstellung: KuenstlerEinstellung?</text><text fill="#000000" font-family="DejaVu Sans" font-size="17" lengthAdjust="spacing" textLength="295.4995" x="60" y="345.4438">+anzeigename: String {readOnly}</text><text fill="#000000" font-family="DejaVu Sans" font-size="17" lengthAdjust="spacing" textLength="284.0361" x="60" y="365.2329">+sortiername: String {readOnly}</text><line style="stroke:#176C78;stroke-width:0.5;" x1="55" x2="367.9785" y1="373.2422" y2="373.2422"/></g><!--class KuenstlerEinstellung--><g class="entity" data-entity="KuenstlerEinstellung" data-source-line="48" data-uid="ent0005" id="entity_KuenstlerEinstellung"><rect fill="#F1F7F8" height="146.9453" rx="4" ry="4" style="stroke:#176C78;stroke-width:0.5;" width="329.1895" x="758" y="310.2969"/><ellipse cx="830.9167" cy="326.2969" fill="#ADD1B2" rx="11" ry="11" style="stroke:#181818;stroke-width:1;"/><path d="M833.8855,331.9375 Q833.3074,332.2344 832.6667,332.375 Q832.0261,332.5313 831.323,332.5313 Q828.823,332.5313 827.4949,330.8906 Q826.1824,329.2344 826.1824,326.1094 Q826.1824,322.9844 827.4949,321.3281 Q828.823,319.6719 831.323,319.6719 Q832.0261,319.6719 832.6667,319.8281 Q833.323,319.9844 833.8855,320.2813 L833.8855,323 Q833.2605,322.4219 832.6667,322.1563 Q832.073,321.875 831.448,321.875 Q830.1042,321.875 829.4167,322.9531 Q828.7292,324.0156 828.7292,326.1094 Q828.7292,328.2031 829.4167,329.2813 Q830.1042,330.3438 831.448,330.3438 Q832.073,330.3438 832.6667,330.0781 Q833.2605,329.7969 833.8855,329.2188 L833.8855,331.9375 Z " fill="#000000"/><text fill="#000000" font-family="DejaVu Sans" font-size="17" lengthAdjust="spacing" textLength="174.856" x="851.4167" y="332.1821">KuenstlerEinstellung</text><line style="stroke:#176C78;stroke-width:0.5;" x1="759" x2="1086.1895" y1="342.2969" y2="342.2969"/><text fill="#000000" font-family="DejaVu Sans" font-size="17" lengthAdjust="spacing" textLength="171.4609" x="764" y="362.0767">+kuenstlerId: String</text><text fill="#000000" font-family="DejaVu Sans" font-size="17" lengthAdjust="spacing" textLength="199.9409" x="764" y="381.8657">+eigenerName: String?</text><text fill="#000000" font-family="DejaVu Sans" font-size="17" lengthAdjust="spacing" textLength="179.4048" x="764" y="401.6548">+sortiername: String</text><line style="stroke:#176C78;stroke-width:0.5;" x1="759" x2="1086.1895" y1="409.6641" y2="409.6641"/><text fill="#000000" font-family="DejaVu Sans" font-size="17" lengthAdjust="spacing" textLength="317.1895" x="764" y="429.4438">+ausMap(map): KuenstlerEinstellung</text><text fill="#000000" font-family="DejaVu Sans" font-size="17" lengthAdjust="spacing" textLength="130.0898" x="764" y="449.2329">+zuMap(): Map</text></g><!--class Kategorie--><g class="entity" data-entity="Kategorie" data-source-line="55" data-uid="ent0006" id="entity_Kategorie"><rect fill="#F1F7F8" height="127.1563" rx="4" ry="4" style="stroke:#176C78;stroke-width:0.5;" width="274.6782" x="74" y="480.2969"/><ellipse cx="166.0625" cy="496.2969" fill="#ADD1B2" rx="11" ry="11" style="stroke:#181818;stroke-width:1;"/><path d="M169.0313,501.9375 Q168.4531,502.2344 167.8125,502.375 Q167.1719,502.5313 166.4688,502.5313 Q163.9688,502.5313 162.6406,500.8906 Q161.3281,499.2344 161.3281,496.1094 Q161.3281,492.9844 162.6406,491.3281 Q163.9688,489.6719 166.4688,489.6719 Q167.1719,489.6719 167.8125,489.8281 Q168.4688,489.9844 169.0313,490.2813 L169.0313,493 Q168.4063,492.4219 167.8125,492.1563 Q167.2188,491.875 166.5938,491.875 Q165.25,491.875 164.5625,492.9531 Q163.875,494.0156 163.875,496.1094 Q163.875,498.2031 164.5625,499.2813 Q165.25,500.3438 166.5938,500.3438 Q167.2188,500.3438 167.8125,500.0781 Q168.4063,499.7969 169.0313,499.2188 L169.0313,501.9375 Z " fill="#000000"/><text fill="#000000" font-family="DejaVu Sans" font-size="17" lengthAdjust="spacing" textLength="82.0532" x="186.5625" y="502.1821">Kategorie</text><line style="stroke:#176C78;stroke-width:0.5;" x1="75" x2="347.6782" y1="512.2969" y2="512.2969"/><text fill="#000000" font-family="DejaVu Sans" font-size="17" lengthAdjust="spacing" textLength="63.0527" x="80" y="532.0767">+id: int</text><text fill="#000000" font-family="DejaVu Sans" font-size="17" lengthAdjust="spacing" textLength="124.3208" x="80" y="551.8657">+name: String</text><text fill="#000000" font-family="DejaVu Sans" font-size="17" lengthAdjust="spacing" textLength="210.4414" x="80" y="571.6548">+albumIds: Set&lt;String&gt;</text><text fill="#000000" font-family="DejaVu Sans" font-size="17" lengthAdjust="spacing" textLength="262.6782" x="80" y="591.4438">+albumAnzahl: int {readOnly}</text><line style="stroke:#176C78;stroke-width:0.5;" x1="75" x2="347.6782" y1="599.4531" y2="599.4531"/></g><!--class AlbumSeite--><g class="entity" data-entity="AlbumSeite" data-source-line="61" data-uid="ent0007" id="entity_AlbumSeite"><rect fill="#F1F7F8" height="87.5781" rx="4" ry="4" style="stroke:#176C78;stroke-width:0.5;" width="237.7563" x="92.5" y="625.7969"/><ellipse cx="158.3403" cy="641.7969" fill="#ADD1B2" rx="11" ry="11" style="stroke:#181818;stroke-width:1;"/><path d="M161.3091,647.4375 Q160.731,647.7344 160.0903,647.875 Q159.4497,648.0313 158.7466,648.0313 Q156.2466,648.0313 154.9185,646.3906 Q153.606,644.7344 153.606,641.6094 Q153.606,638.4844 154.9185,636.8281 Q156.2466,635.1719 158.7466,635.1719 Q159.4497,635.1719 160.0903,635.3281 Q160.7466,635.4844 161.3091,635.7813 L161.3091,638.5 Q160.6841,637.9219 160.0903,637.6563 Q159.4966,637.375 158.8716,637.375 Q157.5278,637.375 156.8403,638.4531 Q156.1528,639.5156 156.1528,641.6094 Q156.1528,643.7031 156.8403,644.7813 Q157.5278,645.8438 158.8716,645.8438 Q159.4966,645.8438 160.0903,645.5781 Q160.6841,645.2969 161.3091,644.7188 L161.3091,647.4375 Z " fill="#000000"/><text fill="#000000" font-family="DejaVu Sans" font-size="17" lengthAdjust="spacing" textLength="97.5757" x="178.8403" y="647.6821">AlbumSeite</text><line style="stroke:#176C78;stroke-width:0.5;" x1="93.5" x2="329.2563" y1="657.7969" y2="657.7969"/><text fill="#000000" font-family="DejaVu Sans" font-size="17" lengthAdjust="spacing" textLength="185.2236" x="98.5" y="677.5767">+alben: List&lt;Album&gt;</text><text fill="#000000" font-family="DejaVu Sans" font-size="17" lengthAdjust="spacing" textLength="225.7563" x="98.5" y="697.3657">+naechsterCursor: String?</text><line style="stroke:#176C78;stroke-width:0.5;" x1="93.5" x2="329.2563" y1="705.375" y2="705.375"/></g><!--class LokaleBibliothekCache--><g class="entity" data-entity="LokaleBibliothekCache" data-source-line="65" data-uid="ent0008" id="entity_LokaleBibliothekCache"><rect fill="#F1F7F8" height="87.5781" rx="4" ry="4" style="stroke:#176C78;stroke-width:0.5;" width="248.6387" x="87" y="731.7969"/><ellipse cx="112.6592" cy="747.7969" fill="#ADD1B2" rx="11" ry="11" style="stroke:#181818;stroke-width:1;"/><path d="M115.6279,753.4375 Q115.0498,753.7344 114.4092,753.875 Q113.7685,754.0313 113.0654,754.0313 Q110.5654,754.0313 109.2373,752.3906 Q107.9248,750.7344 107.9248,747.6094 Q107.9248,744.4844 109.2373,742.8281 Q110.5654,741.1719 113.0654,741.1719 Q113.7685,741.1719 114.4092,741.3281 Q115.0654,741.4844 115.6279,741.7813 L115.6279,744.5 Q115.0029,743.9219 114.4092,743.6563 Q113.8154,743.375 113.1904,743.375 Q111.8467,743.375 111.1592,744.4531 Q110.4717,745.5156 110.4717,747.6094 Q110.4717,749.7031 111.1592,750.7813 Q111.8467,751.8438 113.1904,751.8438 Q113.8154,751.8438 114.4092,751.5781 Q115.0029,751.2969 115.6279,750.7188 L115.6279,753.4375 Z " fill="#000000"/><text fill="#000000" font-family="DejaVu Sans" font-size="17" lengthAdjust="spacing" textLength="192.9517" x="129.0279" y="753.6821">LokaleBibliothekCache</text><line style="stroke:#176C78;stroke-width:0.5;" x1="88" x2="334.6387" y1="763.7969" y2="763.7969"/><text fill="#000000" font-family="DejaVu Sans" font-size="17" lengthAdjust="spacing" textLength="185.2236" x="93" y="783.5767">+alben: List&lt;Album&gt;</text><text fill="#000000" font-family="DejaVu Sans" font-size="17" lengthAdjust="spacing" textLength="236.6387" x="93" y="803.3657">+gespeichertAm: DateTime</text><line style="stroke:#176C78;stroke-width:0.5;" x1="88" x2="334.6387" y1="811.375" y2="811.375"/></g><!--class AlbumTitel--><g class="entity" data-entity="AlbumTitel" data-source-line="69" data-uid="ent0009" id="entity_AlbumTitel"><rect fill="#F1F7F8" height="166.7344" rx="4" ry="4" style="stroke:#176C78;stroke-width:0.5;" width="169.665" x="126.5" y="49.2969"/><ellipse cx="162.3044" cy="65.2969" fill="#ADD1B2" rx="11" ry="11" style="stroke:#181818;stroke-width:1;"/><path d="M165.2731,70.9375 Q164.695,71.2344 164.0544,71.375 Q163.4137,71.5313 162.7106,71.5313 Q160.2106,71.5313 158.8825,69.8906 Q157.57,68.2344 157.57,65.1094 Q157.57,61.9844 158.8825,60.3281 Q160.2106,58.6719 162.7106,58.6719 Q163.4137,58.6719 164.0544,58.8281 Q164.7106,58.9844 165.2731,59.2813 L165.2731,62 Q164.6481,61.4219 164.0544,61.1563 Q163.4606,60.875 162.8356,60.875 Q161.4919,60.875 160.8044,61.9531 Q160.1169,63.0156 160.1169,65.1094 Q160.1169,67.2031 160.8044,68.2813 Q161.4919,69.3438 162.8356,69.3438 Q163.4606,69.3438 164.0544,69.0781 Q164.6481,68.7969 165.2731,68.2188 L165.2731,70.9375 Z " fill="#000000"/><text fill="#000000" font-family="DejaVu Sans" font-size="17" lengthAdjust="spacing" textLength="91.4331" x="180.9276" y="71.1821">AlbumTitel</text><line style="stroke:#176C78;stroke-width:0.5;" x1="127.5" x2="295.165" y1="81.2969" y2="81.2969"/><text fill="#000000" font-family="DejaVu Sans" font-size="17" lengthAdjust="spacing" textLength="91.624" x="132.5" y="101.0767">+id: String</text><text fill="#000000" font-family="DejaVu Sans" font-size="17" lengthAdjust="spacing" textLength="103.627" x="132.5" y="120.8657">+typ: String</text><text fill="#000000" font-family="DejaVu Sans" font-size="17" lengthAdjust="spacing" textLength="109.3462" x="132.5" y="140.6548">+titel: String</text><text fill="#000000" font-family="DejaVu Sans" font-size="17" lengthAdjust="spacing" textLength="128.6787" x="132.5" y="160.4438">+nummer: int?</text><text fill="#000000" font-family="DejaVu Sans" font-size="17" lengthAdjust="spacing" textLength="83.1323" x="132.5" y="180.2329">+teil: int?</text><text fill="#000000" font-family="DejaVu Sans" font-size="17" lengthAdjust="spacing" textLength="157.665" x="132.5" y="200.022">+dauer: Duration?</text><line style="stroke:#176C78;stroke-width:0.5;" x1="127.5" x2="295.165" y1="208.0313" y2="208.0313"/></g><g class="entity" data-entity="GMN17" data-source-line="85" data-uid="ent0018" id="entity_GMN17"><path d="M734,105.7969 L734,128.7969 L296.6158,132.7969 L734,136.7969 L734,160.1797 A4,4 0 0 0 738,164.1797 L1106.5542,164.1797 A4,4 0 0 0 1110.5542,160.1797 L1110.5542,111.7969 L1100.5542,101.7969 L738,101.7969 A4,4 0 0 0 734,105.7969" fill="#FFF4DC" style="stroke:#BC8B39;stroke-width:0.5;"/><path d="M1100.5542,101.7969 L1100.5542,109.7969 A2,2 0 0 0 1102.5542,111.7969 L1110.5542,111.7969 L1100.5542,101.7969" fill="#FFF4DC" style="stroke:#BC8B39;stroke-width:0.5;"/><text fill="#000000" font-family="DejaVu Sans" font-size="15" lengthAdjust="spacing" textLength="334.7607" x="740" y="120.7202">AlbumTitel wird von der Detailseite geladen.</text><text fill="#000000" font-family="DejaVu Sans" font-size="15" lengthAdjust="spacing" textLength="225.1904" x="740" y="138.1812">Album enth&#228;lt keine Titelliste.</text><text fill="#000000" font-family="DejaVu Sans" font-size="15" lengthAdjust="spacing" textLength="355.5542" x="740" y="155.6421">Titel werden nicht in album_cache gespeichert.</text></g><g class="entity" data-entity="GMN20" data-source-line="90" data-uid="ent0021" id="entity_GMN20"><path d="M6,403.7969 L6,458.1797 A4,4 0 0 0 10,462.1797 L412.7363,462.1797 A4,4 0 0 0 416.7363,458.1797 L416.7363,409.7969 L406.7363,399.7969 L215.5,399.7969 L211.5,381.6427 L207.5,399.7969 L10,399.7969 A4,4 0 0 0 6,403.7969" fill="#FFF4DC" style="stroke:#BC8B39;stroke-width:0.5;"/><path d="M406.7363,399.7969 L406.7363,407.7969 A2,2 0 0 0 408.7363,409.7969 L416.7363,409.7969 L406.7363,399.7969" fill="#FFF4DC" style="stroke:#BC8B39;stroke-width:0.5;"/><text fill="#000000" font-family="DejaVu Sans" font-size="15" lengthAdjust="spacing" textLength="321.0938" x="12" y="418.7202">Laufzeitansicht aus Alben + Einstellungen.</text><text fill="#000000" font-family="DejaVu Sans" font-size="15" lengthAdjust="spacing" textLength="351.731" x="12" y="436.1812">Kein Dateisystemordner, keine eigene Tabelle.</text><text fill="#000000" font-family="DejaVu Sans" font-size="15" lengthAdjust="spacing" textLength="389.7363" x="12" y="453.6421">Pfeile zeigen Referenzen; keine Besitz-Komposition.</text></g><g class="link" data-entity-1="Album" data-entity-2="Kuenstler" data-uid="lnk10" id="link_Album_Kuenstler"><polygon fill="#176C78" points="1269.886,395.3421,1260.0605,396.0196,1265.4674,397.6823,1263.8047,403.0893,1269.886,395.3421" style="stroke:#176C78;stroke-width:1;"/><path d="M1099.7607,485.4448 C1159.9477,453.5682 1218.3571,422.6332 1264.5837,398.1504" fill="none" style="stroke:#176C78;stroke-width:1.2;"/><text fill="#000000" font-family="DejaVu Sans" font-size="17" lengthAdjust="spacing" textLength="119.7222" x="1131" y="401.5767">kuenstlerListe</text><text fill="#000000" font-family="DejaVu Sans" font-size="17" lengthAdjust="spacing" textLength="30.1235" x="1238.886" y="391.1219">0..*</text></g><g class="link" data-entity-1="KuenstlerOrdner" data-entity-2="Kuenstler" data-uid="lnk11" id="link_KuenstlerOrdner_Kuenstler"><polygon fill="#176C78" points="1269.6223,337.7649,1262.1534,331.3449,1264.8336,336.3265,1259.852,339.0067,1269.6223,337.7649" style="stroke:#176C78;stroke-width:1;"/><path d="M369.0676,294.2919 C548.9335,281.658 852.5439,269.161 1111,301.7969 C1165.2544,308.6477 1219.3897,322.6763 1263.8759,336.0389" fill="none" style="stroke:#176C78;stroke-width:1.2;"/><text fill="#000000" font-family="DejaVu Sans" font-size="17" lengthAdjust="spacing" textLength="79.5464" x="883" y="275.5767">kuenstler</text><text fill="#000000" font-family="DejaVu Sans" font-size="17" lengthAdjust="spacing" textLength="10.8159" x="1258.6223" y="354.5447">1</text></g><g class="link" data-entity-1="KuenstlerOrdner" data-entity-2="Album" data-uid="lnk12" id="link_KuenstlerOrdner_Album"><polygon fill="#176C78" points="745.3847,511.4806,738.406,504.5309,740.7142,509.6954,735.5497,512.0036,745.3847,511.4806" style="stroke:#176C78;stroke-width:1;"/><path d="M369.4102,367.7724 C480.66,410.2952 624.4512,465.2564 739.7801,509.3384" fill="none" style="stroke:#176C78;stroke-width:1.2;"/><text fill="#000000" font-family="DejaVu Sans" font-size="17" lengthAdjust="spacing" textLength="47.165" x="552" y="389.5767">alben</text><text fill="#000000" font-family="DejaVu Sans" font-size="17" lengthAdjust="spacing" textLength="30.1235" x="714.3847" y="507.2604">0..*</text></g><g class="link" data-entity-1="KuenstlerOrdner" data-entity-2="KuenstlerEinstellung" data-uid="lnk13" id="link_KuenstlerOrdner_KuenstlerEinstellung"><polygon fill="#176C78" points="757.9289,366.2632,749.4065,361.3267,752.9574,365.7302,748.5538,369.2811,757.9289,366.2632" style="stroke:#176C78;stroke-width:1;"/><path d="M369.4102,324.6166 C484.7388,336.979 635.096,353.0963 751.9631,365.6237" fill="none" style="stroke:#176C78;stroke-width:1.2;"/><text fill="#000000" font-family="DejaVu Sans" font-size="17" lengthAdjust="spacing" textLength="93.7241" x="529" y="326.5767">einstellung</text><text fill="#000000" font-family="DejaVu Sans" font-size="17" lengthAdjust="spacing" textLength="32.4395" x="724.9289" y="383.0429">0..1</text></g><g class="link" data-entity-1="AlbumSeite" data-entity-2="Album" data-uid="lnk14" id="link_AlbumSeite_Album"><polygon fill="#176C78" points="745.3718,601.4029,735.9358,598.5812,740.4125,602.0394,736.9542,606.5161,745.3718,601.4029" style="stroke:#176C78;stroke-width:1;"/><path d="M330.7715,654.6168 C443.9443,640.091 610.1161,618.7629 739.4206,602.1667" fill="none" style="stroke:#176C78;stroke-width:1.2;"/><text fill="#000000" font-family="DejaVu Sans" font-size="17" lengthAdjust="spacing" textLength="47.165" x="552" y="599.5767">alben</text><text fill="#000000" font-family="DejaVu Sans" font-size="17" lengthAdjust="spacing" textLength="30.1235" x="714.3718" y="618.1827">0..*</text></g><g class="link" data-entity-1="LokaleBibliothekCache" data-entity-2="Album" data-uid="lnk15" id="link_LokaleBibliothekCache_Album"><polygon fill="#176C78" points="745.4907,656.7272,735.6666,656.0279,740.7889,658.4283,738.3885,663.5506,745.4907,656.7272" style="stroke:#176C78;stroke-width:1;"/><path d="M336.0562,755.867 C439.0561,737.6388 588.9381,707.3437 716,666.7969 C725.7056,663.6997 729.9394,662.3538 739.8486,658.7685" fill="none" style="stroke:#176C78;stroke-width:1.2;"/><text fill="#000000" font-family="DejaVu Sans" font-size="17" lengthAdjust="spacing" textLength="47.165" x="552" y="661.5767">alben</text><text fill="#000000" font-family="DejaVu Sans" font-size="17" lengthAdjust="spacing" textLength="30.1235" x="714.4907" y="673.5069">0..*</text></g><g class="link" data-entity-1="Kategorie" data-entity-2="Album" data-uid="lnk16" id="link_Kategorie_Album"><polygon fill="#176C78" points="745.2024,570.0939,736.4106,565.655,740.2085,569.8474,736.0161,573.6453,745.2024,570.0939" style="stroke:#176C78;stroke-width:1;"/><path d="M349.2023,550.5452 C461.974,556.1122 616.763,563.7534 739.2097,569.7981" fill="none" style="stroke:#176C78;stroke-width:1.2;stroke-dasharray:7,7;"/><text fill="#000000" font-family="DejaVu Sans" font-size="17" lengthAdjust="spacing" textLength="170.498" x="490.3574" y="529.5767">Zuordnung &#252;ber IDs</text><text fill="#000000" font-family="DejaVu Sans" font-size="17" lengthAdjust="spacing" textLength="277.2129" x="437" y="549.3657">keine Album-Referenzen im Feld</text></g><!--SRC=[ZLRRSjis47tdLspJbwI9DL7JrWwRiKUNSiPZnSd4RXywdUc0v8f4108CBd4jJ_wcdz6t_5WNe2wmH6cY5mhOWzspksT1VjTgLZKC1BjNpe9fq3B94hFWicMQDP2pOb5fvMGvKK9f-3uBlmXHufmvOJCbxJLh4ARuaVtXu8P9qu-wuKk4uMbaD3KhrHsN5SoPC1XPGkH2QOaQpgBzaTRgRiLeUFhBv3GsphZ4GxP2C6D6rcgUEukNXPA1pijTo7Wlxs5sckrv6YjTeZuOJ3MjaYZjDtZRG8zwRCaHgt3VtrasoiOzmDZRsV3rUFGg0bqhs-CgotwQJdPHiP_nv6pywlKEOjlPd-FEuYU7ii2tQ0pH6GbUIIWeJTGzgFTCMrxmbdrBnVeE7QtT-i2Cpz5Bv7XjrkYWjDkQ5mj9ES1my6DIyn9XhfJDrJ-9vLOWPAoe6rMYeF_SopD7RerfaHSrfIfmRi4gqBogBPHSOs6vaadG48n4xXfuIE0vBrEu8MtAYXRa6KMqNX0VGy7qZ1kBAVZ7cwlrvZaXK1iAnwMJbIcPTKqAKsRnbZTuGUP2VKRzkzxuz7j-u0cACiDQe4mXLqhG_aTMwnIuj1Vme96LxwIu_qBxp9aFL0VbD7NnAIzVWDuidwLTAicNLM8RSl00kzb9kYisoxq3xtJfH_uXJZlTcZqHaNkweGWXQYW09pirWGeGeN_RxlgKcLmYhp0cy3X7eqXHg0y1ziX6_XyplemJ3Z5HNqTUB_g3TML-ozgd3MkVzIT2cANp4BBJOqkAUbafpN6Z9-hXRhb3zLnpMHhQGlkcspvVxu_aajKYdEpBErJxXlJTnUXjX6HOrCHLJvoc3BS9hvtCr8897FDSS6LhN4neW8xugt0zItOKgVenfri_C3rpTDyUcIhfcWPNKlTcv6ApA9dpfgdJp8-hPz_Dwid9EJnvEHZyy2JIU0gF9pJPLNCuDJnmf1_TnUY2fX1ASn0OUuubcK8q5adKlOCH-fjpcD16SuF1-SRsfwFxrLz5yFM_d6XUJirVSa5Ki8ESVC0vQgHXbFxAp52KYQGNoUgILFEegKdSu3kkI_Yi97rJQFhQi8pJDuFFfqB1IfI35HheDLD__LTOwAA6qy9tXX0hLqYl00cIb6MfwH3a_tSHqeqaDqXGbk39TGnpPQrgFCMTNYGmOsvErmjzHPdWb0RPiw4Wpo5gIc1vHRI2bBcv9qEZWeyNAxhTVG6tBFTl5OA_dvCs4RhB2xRL-tLrO8o6s-N9bV-Ie7yas2tl_m40]--></g></svg>