<svg xmlns="http://www.w3.org/2000/svg" xmlns:xlink="http://www.w3.org/1999/xlink" contentStyleType="text/css" data-diagram-type="SEQUENCE" height="1056px" preserveAspectRatio="none" style="width:1355px;height:1056px;background:#FFFFFF;" version="1.1" viewBox="0 0 1355 1056" width="1355px" zoomAndPan="magnify"><title>Appstart: Cache und gespeicherte Sitzung</title><defs/><g><text fill="#000000" font-family="DejaVu Sans" font-size="14" font-weight="bold" lengthAdjust="spacing" textLength="334.1748" x="511.4607" y="27.9951">Appstart: Cache und gespeicherte Sitzung</text><rect fill="#F8FAFB" height="478.4141" rx="4" ry="4" style="stroke:#819BA3;stroke-width:1.5;" width="1280.0962" x="68" y="160.6641"/><rect fill="#F8FAFB" height="146.7344" rx="4" ry="4" style="stroke:#819BA3;stroke-width:1.5;" width="1260.0962" x="78" y="261.8203"/><path d="M68,415.5547 L1348.0962,415.5547 L1348.0962,635.0781 A4,4 0 0 1 1344.0962,639.0781 L72,639.0781 A4,4 0 0 1 68,635.0781 L68,415.5547" fill="#F8FAFB" style="stroke:none;stroke-width:1;"/><rect fill="#F8FAFB" height="258.2344" rx="4" ry="4" style="stroke:#819BA3;stroke-width:1.5;" width="800.2429" x="9" y="719.6563"/><rect fill="#F8FAFB" height="73.3672" rx="4" ry="4" style="stroke:#819BA3;stroke-width:1.5;" width="477.2561" x="78" y="820.8125"/><path d="M9,901.1797 L809.2429,901.1797 L809.2429,973.8906 A4,4 0 0 1 805.2429,977.8906 L13,977.8906 A4,4 0 0 1 9,973.8906 L9,901.1797" fill="#F8FAFB" style="stroke:none;stroke-width:1;"/><g><title>Home</title><rect fill="#000000" fill-opacity="0.00000" height="952.9375" width="8" x="163.8103" y="96.875"/><line style="stroke:#819BA3;stroke-width:0.5;stroke-dasharray:5,5;" x1="167" x2="167" y1="96.875" y2="1049.8125"/></g><g><title>LokaleDatenbank</title><rect fill="#000000" fill-opacity="0.00000" height="952.9375" width="8" x="546.2561" y="96.875"/><line style="stroke:#819BA3;stroke-width:0.5;stroke-dasharray:5,5;" x1="549.9807" x2="549.9807" y1="96.875" y2="1049.8125"/></g><g><title>TidalAuthService</title><rect fill="#000000" fill-opacity="0.00000" height="952.9375" width="8" x="716.3872" y="96.875"/><line style="stroke:#819BA3;stroke-width:0.5;stroke-dasharray:5,5;" x1="719.5315" x2="719.5315" y1="96.875" y2="1049.8125"/></g><g><title>TidalSessionStore</title><rect fill="#000000" fill-opacity="0.00000" height="952.9375" width="8" x="1052.5396" y="96.875"/><line style="stroke:#819BA3;stroke-width:0.5;stroke-dasharray:5,5;" x1="1055.936" x2="1055.936" y1="96.875" y2="1049.8125"/></g><g><title>LokalerCoverCache</title><rect fill="#000000" fill-opacity="0.00000" height="952.9375" width="8" x="1234.6196" y="96.875"/><line style="stroke:#819BA3;stroke-width:0.5;stroke-dasharray:5,5;" x1="1238.1431" x2="1238.1431" y1="96.875" y2="1049.8125"/></g><g class="participant participant-head" data-participant="H"><rect fill="#F1F7F8" height="53.5781" rx="4" ry="4" style="stroke:#176C78;stroke-width:0.5;" width="159.6206" x="88" y="42.2969"/><text fill="#000000" font-family="DejaVu Sans" font-size="17" lengthAdjust="spacing" textLength="50.2031" x="142.7087" y="65.0767">Home</text><text fill="#000000" font-family="DejaVu Sans" font-size="17" lengthAdjust="spacing" textLength="145.6206" x="95" y="84.8657">_HomePageState</text></g><g class="participant participant-head" data-participant="DB"><rect fill="#F1F7F8" height="33.7891" rx="4" ry="4" style="stroke:#176C78;stroke-width:0.5;" width="162.5508" x="468.9807" y="62.0859"/><text fill="#000000" font-family="DejaVu Sans" font-size="17" lengthAdjust="spacing" textLength="148.5508" x="475.9807" y="84.8657">LokaleDatenbank</text></g><g class="participant participant-head" data-participant="A"><rect fill="#F1F7F8" height="33.7891" rx="4" ry="4" style="stroke:#176C78;stroke-width:0.5;" width="157.7114" x="641.5315" y="62.0859"/><text fill="#000000" font-family="DejaVu Sans" font-size="17" lengthAdjust="spacing" textLength="143.7114" x="648.5315" y="84.8657">TidalAuthService</text></g><g class="participant participant-head" data-participant="S"><rect fill="#F1F7F8" height="33.7891" rx="4" ry="4" style="stroke:#176C78;stroke-width:0.5;" width="165.207" x="973.936" y="62.0859"/><text fill="#000000" font-family="DejaVu Sans" font-size="17" lengthAdjust="spacing" textLength="151.207" x="980.936" y="84.8657">TidalSessionStore</text></g><g class="participant participant-head" data-participant="C"><rect fill="#F1F7F8" height="33.7891" rx="4" ry="4" style="stroke:#176C78;stroke-width:0.5;" width="178.9531" x="1149.1431" y="62.0859"/><text fill="#000000" font-family="DejaVu Sans" font-size="17" lengthAdjust="spacing" textLength="164.9531" x="1156.1431" y="84.8657">LokalerCoverCache</text></g><g class="message" data-participant-1="H" data-participant-2="H"><line style="stroke:#176C78;stroke-width:1.2;" x1="167.8103" x2="209.8103" y1="132.6641" y2="132.6641"/><line style="stroke:#176C78;stroke-width:1.2;" x1="209.8103" x2="209.8103" y1="132.6641" y2="145.6641"/><line style="stroke:#176C78;stroke-width:1.2;" x1="168.8103" x2="209.8103" y1="145.6641" y2="145.6641"/><polygon fill="#176C78" points="178.8103,141.6641,168.8103,145.6641,178.8103,149.6641,174.8103,145.6641" style="stroke:#176C78;stroke-width:1;"/><text fill="#000000" font-family="DejaVu Sans" font-size="17" font-weight="bold" lengthAdjust="spacing" textLength="11.8286" x="174.8103" y="126.6548">1</text><text fill="#000000" font-family="DejaVu Sans" font-size="17" lengthAdjust="spacing" textLength="227.1841" x="190.6389" y="126.6548">initState() / _initialisieren()</text></g><path d="M72,160.6641 L145.0244,160.6641 L145.0244,172.4531 L135.0244,182.4531 L68,182.4531 L68,164.6641 A4,4 0 0 1 72,160.6641" fill="#EEEEEE" style="stroke:#000000;stroke-width:1.5;"/><rect fill="none" height="478.4141" rx="4" ry="4" style="stroke:#819BA3;stroke-width:1.5;" width="1280.0962" x="68" y="160.6641"/><text fill="#000000" font-family="DejaVu Sans" font-size="17" font-weight="bold" lengthAdjust="spacing" textLength="32.0244" x="83" y="177.4438">par</text><text fill="#000000" font-family="DejaVu Sans" font-size="17" font-weight="bold" lengthAdjust="spacing" textLength="295.9312" x="160.0244" y="178.4438">[lokal gespeicherte Bibliothek]</text><g class="message" data-participant-1="H" data-participant-2="DB"><polygon fill="#176C78" points="538.2561,209.0313,548.2561,213.0313,538.2561,217.0313,542.2561,213.0313" style="stroke:#176C78;stroke-width:1;"/><line style="stroke:#176C78;stroke-width:1.2;" x1="167.8103" x2="544.2561" y1="213.0313" y2="213.0313"/><text fill="#000000" font-family="DejaVu Sans" font-size="17" font-weight="bold" lengthAdjust="spacing" textLength="11.8286" x="265.4631" y="207.022">2</text><text fill="#000000" font-family="DejaVu Sans" font-size="17" lengthAdjust="spacing" textLength="171.3115" x="281.2917" y="207.022">albumCacheLaden()</text></g><g class="message" data-participant-1="DB" data-participant-2="H"><polygon fill="#176C78" points="178.8103,242.8203,168.8103,246.8203,178.8103,250.8203,174.8103,246.8203" style="stroke:#176C78;stroke-width:1;"/><line style="stroke:#176C78;stroke-width:1.2;stroke-dasharray:2,2;" x1="172.8103" x2="549.2561" y1="246.8203" y2="246.8203"/><text fill="#000000" font-family="DejaVu Sans" font-size="17" font-weight="bold" lengthAdjust="spacing" textLength="11.8286" x="250.1316" y="240.811">3</text><text fill="#000000" font-family="DejaVu Sans" font-size="17" lengthAdjust="spacing" textLength="201.9746" x="265.9602" y="240.811">LokaleBibliothekCache?</text></g><path d="M82,261.8203 L154.9746,261.8203 L154.9746,273.6094 L144.9746,283.6094 L78,283.6094 L78,265.8203 A4,4 0 0 1 82,261.8203" fill="#EEEEEE" style="stroke:#000000;stroke-width:1.5;"/><rect fill="none" height="146.7344" rx="4" ry="4" style="stroke:#819BA3;stroke-width:1.5;" width="1260.0962" x="78" y="261.8203"/><text fill="#000000" font-family="DejaVu Sans" font-size="17" font-weight="bold" lengthAdjust="spacing" textLength="31.9746" x="93" y="278.6001">opt</text><text fill="#000000" font-family="DejaVu Sans" font-size="17" font-weight="bold" lengthAdjust="spacing" textLength="411.4863" x="169.9746" y="279.6001">[Cache vorhanden und noch &#252;bernehmbar]</text><g class="message" data-participant-1="H" data-participant-2="H"><line style="stroke:#176C78;stroke-width:1.2;" x1="167.8103" x2="209.8103" y1="333.9766" y2="333.9766"/><line style="stroke:#176C78;stroke-width:1.2;" x1="209.8103" x2="209.8103" y1="333.9766" y2="346.9766"/><line style="stroke:#176C78;stroke-width:1.2;" x1="168.8103" x2="209.8103" y1="346.9766" y2="346.9766"/><polygon fill="#176C78" points="178.8103,342.9766,168.8103,346.9766,178.8103,350.9766,174.8103,346.9766" style="stroke:#176C78;stroke-width:1;"/><text fill="#000000" font-family="DejaVu Sans" font-size="17" font-weight="bold" lengthAdjust="spacing" textLength="11.8286" x="174.8103" y="318.0728">4</text><text fill="#000000" font-family="DejaVu Sans" font-size="17" lengthAdjust="spacing" textLength="244.2671" x="190.6389" y="308.1782">_alben + Zeitstempel setzen</text><text fill="#000000" font-family="DejaVu Sans" font-size="17" lengthAdjust="spacing" textLength="84.2446" x="270.6501" y="327.9673">setState()</text></g><g class="message" data-participant-1="H" data-participant-2="C"><line style="stroke:#176C78;stroke-width:1.2;" x1="1236.6196" x2="1226.6196" y1="400.5547" y2="396.5547"/><line style="stroke:#176C78;stroke-width:1.2;" x1="1236.6196" x2="1226.6196" y1="400.5547" y2="404.5547"/><line style="stroke:#176C78;stroke-width:1.2;" x1="167.8103" x2="1237.6196" y1="400.5547" y2="400.5547"/><text fill="#000000" font-family="DejaVu Sans" font-size="17" font-weight="bold" lengthAdjust="spacing" textLength="11.8286" x="569.7306" y="384.6509">5</text><text fill="#000000" font-family="DejaVu Sans" font-size="17" lengthAdjust="spacing" textLength="251.1401" x="585.5592" y="374.7563">synchronisieren(cache.alben)</text><text fill="#000000" font-family="DejaVu Sans" font-size="17" lengthAdjust="spacing" textLength="88.9263" x="666.6661" y="394.5454">unawaited</text></g><line style="stroke:#819BA3;stroke-width:1;stroke-dasharray:2,2;" x1="68" x2="1348.0962" y1="416.5547" y2="416.5547"/><text fill="#000000" font-family="DejaVu Sans" font-size="17" font-weight="bold" lengthAdjust="spacing" textLength="256.1455" x="73" y="432.3345">[Sitzung wiederherstellen]</text><g class="message" data-participant-1="H" data-participant-2="A"><polygon fill="#176C78" points="708.3872,459.1328,718.3872,463.1328,708.3872,467.1328,712.3872,463.1328" style="stroke:#176C78;stroke-width:1;"/><line style="stroke:#176C78;stroke-width:1.2;" x1="167.8103" x2="714.3872" y1="463.1328" y2="463.1328"/><text fill="#000000" font-family="DejaVu Sans" font-size="17" font-weight="bold" lengthAdjust="spacing" textLength="11.8286" x="399.1422" y="457.1235">6</text><text fill="#000000" font-family="DejaVu Sans" font-size="17" lengthAdjust="spacing" textLength="74.0845" x="414.9708" y="457.1235">restore()</text></g><g class="message" data-participant-1="A" data-participant-2="S"><polygon fill="#176C78" points="1044.5396,492.9219,1054.5396,496.9219,1044.5396,500.9219,1048.5396,496.9219" style="stroke:#176C78;stroke-width:1;"/><line style="stroke:#176C78;stroke-width:1.2;" x1="720.3872" x2="1050.5396" y1="496.9219" y2="496.9219"/><text fill="#000000" font-family="DejaVu Sans" font-size="17" font-weight="bold" lengthAdjust="spacing" textLength="11.8286" x="854.5884" y="490.9126">7</text><text fill="#000000" font-family="DejaVu Sans" font-size="17" lengthAdjust="spacing" textLength="51.9214" x="870.417" y="490.9126">read()</text></g><g class="message" data-participant-1="S" data-participant-2="A"><polygon fill="#176C78" points="731.3872,526.7109,721.3872,530.7109,731.3872,534.7109,727.3872,530.7109" style="stroke:#176C78;stroke-width:1;"/><line style="stroke:#176C78;stroke-width:1.2;stroke-dasharray:2,2;" x1="725.3872" x2="1055.5396" y1="530.7109" y2="530.7109"/><text fill="#000000" font-family="DejaVu Sans" font-size="17" font-weight="bold" lengthAdjust="spacing" textLength="11.8286" x="760.1711" y="524.7017">8</text><text fill="#000000" font-family="DejaVu Sans" font-size="17" lengthAdjust="spacing" textLength="240.7559" x="775.9998" y="524.7017">JSON-Zeichenkette oder null</text></g><g class="message" data-participant-1="A" data-participant-2="A"><line style="stroke:#176C78;stroke-width:1.2;" x1="720.3872" x2="762.3872" y1="564.5" y2="564.5"/><line style="stroke:#176C78;stroke-width:1.2;" x1="762.3872" x2="762.3872" y1="564.5" y2="577.5"/><line style="stroke:#176C78;stroke-width:1.2;" x1="721.3872" x2="762.3872" y1="577.5" y2="577.5"/><polygon fill="#176C78" points="731.3872,573.5,721.3872,577.5,731.3872,581.5,727.3872,577.5" style="stroke:#176C78;stroke-width:1;"/><text fill="#000000" font-family="DejaVu Sans" font-size="17" font-weight="bold" lengthAdjust="spacing" textLength="11.8286" x="727.3872" y="558.4907">9</text><text fill="#000000" font-family="DejaVu Sans" font-size="17" lengthAdjust="spacing" textLength="306.3237" x="743.2158" y="558.4907">Version, clientId und Session pr&#252;fen</text></g><g class="message" data-participant-1="A" data-participant-2="H"><line style="stroke:#176C78;stroke-width:1.2;" x1="168.8103" x2="178.8103" y1="631.0781" y2="627.0781"/><line style="stroke:#176C78;stroke-width:1.2;" x1="168.8103" x2="178.8103" y1="631.0781" y2="635.0781"/><line style="stroke:#176C78;stroke-width:1.2;stroke-dasharray:2,2;" x1="167.8103" x2="719.3872" y1="631.0781" y2="631.0781"/><text fill="#000000" font-family="DejaVu Sans" font-size="17" font-weight="bold" lengthAdjust="spacing" textLength="23.6572" x="354.9779" y="615.1743">10</text><text fill="#000000" font-family="DejaVu Sans" font-size="17" lengthAdjust="spacing" textLength="139.1294" x="388.3627" y="605.2798">notifyListeners()</text><text fill="#000000" font-family="DejaVu Sans" font-size="17" lengthAdjust="spacing" textLength="150.5845" x="382.6351" y="625.0688">_authGeaendert()</text></g><g class="message" data-participant-1="H" data-participant-2="H"><line style="stroke:#176C78;stroke-width:1.2;" x1="167.8103" x2="209.8103" y1="691.6563" y2="691.6563"/><line style="stroke:#176C78;stroke-width:1.2;" x1="209.8103" x2="209.8103" y1="691.6563" y2="704.6563"/><line style="stroke:#176C78;stroke-width:1.2;" x1="168.8103" x2="209.8103" y1="704.6563" y2="704.6563"/><polygon fill="#176C78" points="178.8103,700.6563,168.8103,704.6563,178.8103,708.6563,174.8103,704.6563" style="stroke:#176C78;stroke-width:1;"/><text fill="#000000" font-family="DejaVu Sans" font-size="17" font-weight="bold" lengthAdjust="spacing" textLength="23.6572" x="174.8103" y="675.7524">11</text><text fill="#000000" font-family="DejaVu Sans" font-size="17" lengthAdjust="spacing" textLength="227.4663" x="228.8184" y="665.8579">Future.wait abgeschlossen</text><text fill="#000000" font-family="DejaVu Sans" font-size="17" lengthAdjust="spacing" textLength="280.168" x="202.4675" y="685.647">_anmeldungWirdGeladen = false</text></g><path d="M13,719.6563 L79.4253,719.6563 L79.4253,731.4453 L69.4253,741.4453 L9,741.4453 L9,723.6563 A4,4 0 0 1 13,719.6563" fill="#EEEEEE" style="stroke:#000000;stroke-width:1.5;"/><rect fill="none" height="258.2344" rx="4" ry="4" style="stroke:#819BA3;stroke-width:1.5;" width="800.2429" x="9" y="719.6563"/><text fill="#000000" font-family="DejaVu Sans" font-size="17" font-weight="bold" lengthAdjust="spacing" textLength="25.4253" x="24" y="736.436">alt</text><text fill="#000000" font-family="DejaVu Sans" font-size="17" font-weight="bold" lengthAdjust="spacing" textLength="196.5459" x="94.4253" y="737.436">[Sitzung vorhanden]</text><g class="message" data-participant-1="H" data-participant-2="A"><polygon fill="#176C78" points="708.3872,768.0234,718.3872,772.0234,708.3872,776.0234,712.3872,772.0234" style="stroke:#176C78;stroke-width:1;"/><line style="stroke:#176C78;stroke-width:1.2;" x1="167.8103" x2="714.3872" y1="772.0234" y2="772.0234"/><text fill="#000000" font-family="DejaVu Sans" font-size="17" font-weight="bold" lengthAdjust="spacing" textLength="23.6572" x="369.0643" y="766.0142">12</text><text fill="#000000" font-family="DejaVu Sans" font-size="17" lengthAdjust="spacing" textLength="122.4116" x="396.7216" y="766.0142">accessToken()</text></g><g class="message" data-participant-1="A" data-participant-2="H"><polygon fill="#176C78" points="178.8103,801.8125,168.8103,805.8125,178.8103,809.8125,174.8103,805.8125" style="stroke:#176C78;stroke-width:1;"/><line style="stroke:#176C78;stroke-width:1.2;stroke-dasharray:2,2;" x1="172.8103" x2="719.3872" y1="805.8125" y2="805.8125"/><text fill="#000000" font-family="DejaVu Sans" font-size="17" font-weight="bold" lengthAdjust="spacing" textLength="23.6572" x="353.0231" y="799.8032">13</text><text fill="#000000" font-family="DejaVu Sans" font-size="17" lengthAdjust="spacing" textLength="154.4941" x="380.6803" y="799.8032">Token oder Fehler</text></g><path d="M82,820.8125 L154.9746,820.8125 L154.9746,832.6016 L144.9746,842.6016 L78,842.6016 L78,824.8125 A4,4 0 0 1 82,820.8125" fill="#EEEEEE" style="stroke:#000000;stroke-width:1.5;"/><rect fill="none" height="73.3672" rx="4" ry="4" style="stroke:#819BA3;stroke-width:1.5;" width="477.2561" x="78" y="820.8125"/><text fill="#000000" font-family="DejaVu Sans" font-size="17" font-weight="bold" lengthAdjust="spacing" textLength="31.9746" x="93" y="837.5923">opt</text><text fill="#000000" font-family="DejaVu Sans" font-size="17" font-weight="bold" lengthAdjust="spacing" textLength="367.8989" x="169.9746" y="838.5923">[Token erhalten und _alben nicht leer]</text><g class="message" data-participant-1="H" data-participant-2="H"><line style="stroke:#176C78;stroke-width:1.2;" x1="167.8103" x2="209.8103" y1="873.1797" y2="873.1797"/><line style="stroke:#176C78;stroke-width:1.2;" x1="209.8103" x2="209.8103" y1="873.1797" y2="886.1797"/><line style="stroke:#176C78;stroke-width:1.2;" x1="167.8103" x2="209.8103" y1="886.1797" y2="886.1797"/><line style="stroke:#176C78;stroke-width:1.2;" x1="168.8103" x2="178.8103" y1="886.1797" y2="882.1797"/><line style="stroke:#176C78;stroke-width:1.2;" x1="168.8103" x2="178.8103" y1="886.1797" y2="890.1797"/><text fill="#000000" font-family="DejaVu Sans" font-size="17" font-weight="bold" lengthAdjust="spacing" textLength="23.6572" x="174.8103" y="867.1704">14</text><text fill="#000000" font-family="DejaVu Sans" font-size="17" lengthAdjust="spacing" textLength="340.7886" x="202.4675" y="867.1704">_bibliothekImHintergrundAktualisieren()</text></g><line style="stroke:#819BA3;stroke-width:1;stroke-dasharray:2,2;" x1="9" x2="809.2429" y1="902.1797" y2="902.1797"/><text fill="#000000" font-family="DejaVu Sans" font-size="17" font-weight="bold" lengthAdjust="spacing" textLength="146.2183" x="14" y="917.9595">[keine Sitzung]</text><path d="M19,931.9688 L19,967.9688 A4,4 0 0 0 23,971.9688 L311,971.9688 A4,4 0 0 0 315,967.9688 L315,937.9688 L305,927.9688 L23,927.9688 A4,4 0 0 0 19,931.9688" fill="#FFF4DC" style="stroke:#BC8B39;stroke-width:0.5;"/><path d="M305,927.9688 L305,935.9688 A2,2 0 0 0 307,937.9688 L315,937.9688 L305,927.9688" fill="#FFF4DC" style="stroke:#BC8B39;stroke-width:0.5;"/><text fill="#000000" font-family="DejaVu Sans" font-size="15" lengthAdjust="spacing" textLength="196.3477" x="25" y="946.8921">Kein automatischer Login.</text><text fill="#000000" font-family="DejaVu Sans" font-size="15" lengthAdjust="spacing" textLength="275.6689" x="25" y="964.353">Startseite / Labor bleiben bedienbar.</text><path d="M90,993.8906 L90,1029.8906 A4,4 0 0 0 94,1033.8906 L792,1033.8906 A4,4 0 0 0 796,1029.8906 L796,999.8906 L786,989.8906 L94,989.8906 A4,4 0 0 0 90,993.8906" fill="#FFF4DC" style="stroke:#BC8B39;stroke-width:0.5;"/><path d="M786,989.8906 L786,997.8906 A2,2 0 0 0 788,999.8906 L796,999.8906 L786,989.8906" fill="#FFF4DC" style="stroke:#BC8B39;stroke-width:0.5;"/><text fill="#000000" font-family="DejaVu Sans" font-size="15" lengthAdjust="spacing" textLength="513.7427" x="181.7501" y="1008.814">accessToken() kann ein vorhandenes Token ohne Netzaufruf liefern.</text><text fill="#000000" font-family="DejaVu Sans" font-size="15" lengthAdjust="spacing" textLength="463.6963" x="181.7501" y="1026.2749">Kein Cache: Erstladung wird im Labor ausdr&#252;cklich ausgel&#246;st.</text><!--SRC=[ZLJHRjis57tNLrnqBmdMUFEwBMc0TP3jgSxcPGKKT40HmBYIhYrE5AcILBBcm_RKj_pOBYbPaHCtQ1vYY3myzvvpBecjqwgjCpAHhOHgq60D6URLrkXM5NCjjO5lal0tGXIqmLQwH2jtYJN1Wlx1zosagEnXL2hk2AQdeqrROg5lXTh21gMbqKwed6kZoC3PQ3qsHj_s7KrFVvwVZZTNGj6NzdA9riRE6P6rZYvohK8xtp-6p9xedYQdoHEccJO5cIyMqtMZ5Idt5Mm3z5d6XebmIq_vpf8ucHq0ZjdEfgzdyQiHw5Ax0rH9ykDY_XWrvfdDpsQlNZz2F2JxqpXP-jYIokbFifRRYQNOAiXPvjwGxL3lq3YHYmQ_nh53XvxrRdTW9JRaH-HvRtReC6bNfSWhnHfWElaXAaL1iD7QPVhVo0ad2UAciOuREOSvvYK1zmrRiWq9_ZAE81NkhbNRg7de5buiTKtNQkr_th4xgKD7Bm0jBFTnArsXf0NlgWnL5I2BsJxcIXGeuzQLAPaRaNSyyG5CoZ84ZxtJfWEbXugnBpVypui9e7cqX9Cti8Hp44guqEhHCNm7Q_yfK0eho90wElPi83t9lWCpaKcXNKbL185hCMCob5bRXp8hBC9nltxIb-fwUJWPWBz21BfnlTCtsfIe-6ZmNEcyXFlF_8OfAkiCJGGmDBxcOepx5ZwGSDPHtP3adDqTgMl5lxse_iWRcFCP-qdbfT5g9o_tHIU1wFXQjGflKJWg8Y1LHCIFrovfk1N4uyNQkPAKf7hLCPCQijvzNohsQsbOmy8lf46yH_sU_dLvyY7ufofoRA5cGb2jbFqvZthF1JZEb_mU2RvN5qNmeGyP6dF_UUDhnvwsiq5f9pQVLeBxucVL7h6EDVBWl2La4PmLj-7L3BubhMiDJRnIm8n3pKkfhVMkhL7L90lM-xSmnLkIFaJufN_7KRh1ZY6daG-OvzpdbQwwuECXzx3KoKsev6di4k-MsLGcxWFlCrNiaWD9P8RqGkBPC3eNzLBuPsTh-5XSkNOyiW_fLSGlmt1RlLTiEz-4GFS7Rm9RfMjqmlgvvWdT2ZMvvkl4TyZoN17VYHLc_APaaeJlBQD2-8jh9i7M4UNBEDht02fKB92h37QHtRbHScENFAtORaox0OvxmsC-YRgsmcquXzzut3Y4RW1D0QBkky7M5ZmCUINPAl-r9Nd_dtMXgQ3pVm00]--></g></svg>