<svg xmlns="http://www.w3.org/2000/svg" xmlns:xlink="http://www.w3.org/1999/xlink" contentStyleType="text/css" data-diagram-type="SEQUENCE" height="968px" preserveAspectRatio="none" style="width:1043px;height:968px;background:#FFFFFF;" version="1.1" viewBox="0 0 1043 968" width="1043px" zoomAndPan="magnify"><title>Von JSON-Ressourcen zu Album-Objekten</title><defs/><g><text fill="#000000" font-family="DejaVu Sans" font-size="14" font-weight="bold" lengthAdjust="spacing" textLength="326.7715" x="359.7249" y="27.9951">Von JSON-Ressourcen zu Album-Objekten</text><rect fill="#F8FAFB" height="356.2578" rx="4" ry="4" style="stroke:#819BA3;stroke-width:1.5;" width="1027.2212" x="10" y="402.9766"/><rect fill="#F8FAFB" height="315.6797" rx="4" ry="4" style="stroke:#819BA3;stroke-width:1.5;" width="1007.2212" x="20" y="436.5547"/><g><title>Home</title><rect fill="#000000" fill-opacity="0.00000" height="865.1094" width="8" x="89.4744" y="96.875"/><line style="stroke:#819BA3;stroke-width:0.5;stroke-dasharray:5,5;" x1="93" x2="93" y1="96.875" y2="961.9844"/></g><g><title>_apiLesen..</title><rect fill="#000000" fill-opacity="0.00000" height="865.1094" width="8" x="530.2224" y="96.875"/><line style="stroke:#819BA3;stroke-width:0.5;stroke-dasharray:5,5;" x1="533.364" x2="533.364" y1="96.875" y2="961.9844"/></g><g><title>TidalAuthService</title><rect fill="#000000" fill-opacity="0.00000" height="865.1094" width="8" x="691.2175" y="96.875"/><line style="stroke:#819BA3;stroke-width:0.5;stroke-dasharray:5,5;" x1="694.3618" x2="694.3618" y1="96.875" y2="961.9844"/></g><g><title>TIDAL OpenAPI</title><rect fill="#000000" fill-opacity="0.00000" height="865.1094" width="8" x="942.575" y="96.875"/><line style="stroke:#819BA3;stroke-width:0.5;stroke-dasharray:5,5;" x1="945.9287" x2="945.9287" y1="96.875" y2="961.9844"/></g><g class="participant participant-head" data-participant="H"><rect fill="#F1F7F8" height="53.5781" rx="4" ry="4" style="stroke:#176C78;stroke-width:0.5;" width="126.9487" x="30" y="42.2969"/><text fill="#000000" font-family="DejaVu Sans" font-size="17" lengthAdjust="spacing" textLength="50.2031" x="68.3728" y="65.0767">Home</text><text fill="#000000" font-family="DejaVu Sans" font-size="17" lengthAdjust="spacing" textLength="112.9487" x="37" y="84.8657">_seiteLesen()</text></g><g class="participant participant-head" data-participant="API"><rect fill="#F1F7F8" height="53.5781" rx="4" ry="4" style="stroke:#176C78;stroke-width:0.5;" width="111.7168" x="478.364" y="42.2969"/><text fill="#000000" font-family="DejaVu Sans" font-size="17" lengthAdjust="spacing" textLength="97.7168" x="485.364" y="65.0767">_apiLesen()</text><text fill="#000000" font-family="DejaVu Sans" font-size="17" lengthAdjust="spacing" textLength="73.7358" x="497.3545" y="84.8657">Funktion</text></g><g class="participant participant-head" data-participant="A"><rect fill="#F1F7F8" height="33.7891" rx="4" ry="4" style="stroke:#176C78;stroke-width:0.5;" width="157.7114" x="616.3618" y="62.0859"/><text fill="#000000" font-family="DejaVu Sans" font-size="17" lengthAdjust="spacing" textLength="143.7114" x="623.3618" y="84.8657">TidalAuthService</text></g><g class="participant participant-head" data-participant="T"><rect fill="#F1F7F8" height="33.7891" rx="4" ry="4" style="stroke:#176C78;stroke-width:0.5;" width="141.2925" x="875.9287" y="62.0859"/><text fill="#000000" font-family="DejaVu Sans" font-size="17" lengthAdjust="spacing" textLength="127.2925" x="882.9287" y="84.8657">TIDAL OpenAPI</text></g><g class="message" data-participant-1="H" data-participant-2="API"><polygon fill="#176C78" points="522.2224,148.4531,532.2224,152.4531,522.2224,156.4531,526.2224,152.4531" style="stroke:#176C78;stroke-width:1;"/><line style="stroke:#176C78;stroke-width:1.2;" x1="93.4744" x2="528.2224" y1="152.4531" y2="152.4531"/><text fill="#000000" font-family="DejaVu Sans" font-size="17" font-weight="bold" lengthAdjust="spacing" textLength="11.8286" x="161.874" y="136.5493">1</text><text fill="#000000" font-family="DejaVu Sans" font-size="17" lengthAdjust="spacing" textLength="288.1201" x="177.7026" y="126.6548">Sammlungspfad + sort=-addedAt</text><text fill="#000000" font-family="DejaVu Sans" font-size="17" lengthAdjust="spacing" textLength="183.3809" x="230.0723" y="146.4438">optional page[cursor]</text></g><g class="message" data-participant-1="API" data-participant-2="A"><polygon fill="#176C78" points="683.2175,182.2422,693.2175,186.2422,683.2175,190.2422,687.2175,186.2422" style="stroke:#176C78;stroke-width:1;"/><line style="stroke:#176C78;stroke-width:1.2;" x1="534.2224" x2="689.2175" y1="186.2422" y2="186.2422"/><text fill="#000000" font-family="DejaVu Sans" font-size="17" font-weight="bold" lengthAdjust="spacing" textLength="11.8286" x="546.2224" y="180.2329">2</text><text fill="#000000" font-family="DejaVu Sans" font-size="17" lengthAdjust="spacing" textLength="121.1665" x="562.051" y="180.2329">get(client, uri)</text></g><g class="message" data-participant-1="A" data-participant-2="T"><polygon fill="#176C78" points="934.575,216.0313,944.575,220.0313,934.575,224.0313,938.575,220.0313" style="stroke:#176C78;stroke-width:1;"/><line style="stroke:#176C78;stroke-width:1.2;" x1="695.2175" x2="940.575" y1="220.0313" y2="220.0313"/><text fill="#000000" font-family="DejaVu Sans" font-size="17" font-weight="bold" lengthAdjust="spacing" textLength="11.8286" x="724.5454" y="214.022">3</text><text fill="#000000" font-family="DejaVu Sans" font-size="17" lengthAdjust="spacing" textLength="176.873" x="740.374" y="214.022">authentifizierter GET</text></g><g class="message" data-participant-1="T" data-participant-2="A"><polygon fill="#176C78" points="706.2175,249.8203,696.2175,253.8203,706.2175,257.8203,702.2175,253.8203" style="stroke:#176C78;stroke-width:1;"/><line style="stroke:#176C78;stroke-width:1.2;stroke-dasharray:2,2;" x1="700.2175" x2="945.575" y1="253.8203" y2="253.8203"/><text fill="#000000" font-family="DejaVu Sans" font-size="17" font-weight="bold" lengthAdjust="spacing" textLength="11.8286" x="755.4492" y="247.811">4</text><text fill="#000000" font-family="DejaVu Sans" font-size="17" lengthAdjust="spacing" textLength="115.0654" x="771.2778" y="247.811">JSON-Antwort</text></g><g class="message" data-participant-1="A" data-participant-2="API"><polygon fill="#176C78" points="545.2224,283.6094,535.2224,287.6094,545.2224,291.6094,541.2224,287.6094" style="stroke:#176C78;stroke-width:1;"/><line style="stroke:#176C78;stroke-width:1.2;stroke-dasharray:2,2;" x1="539.2224" x2="694.2175" y1="287.6094" y2="287.6094"/><text fill="#000000" font-family="DejaVu Sans" font-size="17" font-weight="bold" lengthAdjust="spacing" textLength="11.8286" x="565.6006" y="281.6001">5</text><text fill="#000000" font-family="DejaVu Sans" font-size="17" lengthAdjust="spacing" textLength="82.4102" x="581.4292" y="281.6001">Response</text></g><g class="message" data-participant-1="API" data-participant-2="H"><polygon fill="#176C78" points="104.4744,317.3984,94.4744,321.3984,104.4744,325.3984,100.4744,321.3984" style="stroke:#176C78;stroke-width:1;"/><line style="stroke:#176C78;stroke-width:1.2;stroke-dasharray:2,2;" x1="98.4744" x2="533.2224" y1="321.3984" y2="321.3984"/><text fill="#000000" font-family="DejaVu Sans" font-size="17" font-weight="bold" lengthAdjust="spacing" textLength="11.8286" x="230.8826" y="315.3892">6</text><text fill="#000000" font-family="DejaVu Sans" font-size="17" lengthAdjust="spacing" textLength="150.103" x="246.7112" y="315.3892">Json {data, links}</text></g><g class="message" data-participant-1="H" data-participant-2="H"><line style="stroke:#176C78;stroke-width:1.2;" x1="93.4744" x2="135.4744" y1="374.9766" y2="374.9766"/><line style="stroke:#176C78;stroke-width:1.2;" x1="135.4744" x2="135.4744" y1="374.9766" y2="387.9766"/><line style="stroke:#176C78;stroke-width:1.2;" x1="94.4744" x2="135.4744" y1="387.9766" y2="387.9766"/><polygon fill="#176C78" points="104.4744,383.9766,94.4744,387.9766,104.4744,391.9766,100.4744,387.9766" style="stroke:#176C78;stroke-width:1;"/><text fill="#000000" font-family="DejaVu Sans" font-size="17" font-weight="bold" lengthAdjust="spacing" textLength="11.8286" x="100.4744" y="359.0728">7</text><text fill="#000000" font-family="DejaVu Sans" font-size="17" lengthAdjust="spacing" textLength="394.4199" x="116.303" y="349.1782">Album-IDs in Sammlungsreihenfolge sammeln</text><text fill="#000000" font-family="DejaVu Sans" font-size="17" lengthAdjust="spacing" textLength="191.2998" x="217.863" y="368.9673">naechsterCursor lesen</text></g><path d="M14,402.9766 L96.3545,402.9766 L96.3545,414.7656 L86.3545,424.7656 L10,424.7656 L10,406.9766 A4,4 0 0 1 14,402.9766" fill="#EEEEEE" style="stroke:#000000;stroke-width:1.5;"/><rect fill="none" height="356.2578" rx="4" ry="4" style="stroke:#819BA3;stroke-width:1.5;" width="1027.2212" x="10" y="402.9766"/><text fill="#000000" font-family="DejaVu Sans" font-size="17" font-weight="bold" lengthAdjust="spacing" textLength="41.3545" x="25" y="419.7563">loop</text><text fill="#000000" font-family="DejaVu Sans" font-size="17" font-weight="bold" lengthAdjust="spacing" textLength="373.4854" x="111.3545" y="420.7563">[Gruppen mit h&#246;chstens 20 Album-IDs]</text><path d="M24,436.5547 L106.3545,436.5547 L106.3545,448.3438 L96.3545,458.3438 L20,458.3438 L20,440.5547 A4,4 0 0 1 24,436.5547" fill="#EEEEEE" style="stroke:#000000;stroke-width:1.5;"/><rect fill="none" height="315.6797" rx="4" ry="4" style="stroke:#819BA3;stroke-width:1.5;" width="1007.2212" x="20" y="436.5547"/><text fill="#000000" font-family="DejaVu Sans" font-size="17" font-weight="bold" lengthAdjust="spacing" textLength="41.3545" x="35" y="453.3345">loop</text><text fill="#000000" font-family="DejaVu Sans" font-size="17" font-weight="bold" lengthAdjust="spacing" textLength="264.9941" x="121.3545" y="454.3345">[bis Metadaten-Cursor null]</text><g class="message" data-participant-1="H" data-participant-2="API"><polygon fill="#176C78" points="522.2224,504.7109,532.2224,508.7109,522.2224,512.7109,526.2224,508.7109" style="stroke:#176C78;stroke-width:1;"/><line style="stroke:#176C78;stroke-width:1.2;" x1="93.4744" x2="528.2224" y1="508.7109" y2="508.7109"/><text fill="#000000" font-family="DejaVu Sans" font-size="17" font-weight="bold" lengthAdjust="spacing" textLength="11.8286" x="105.4744" y="492.8071">8</text><text fill="#000000" font-family="DejaVu Sans" font-size="17" lengthAdjust="spacing" textLength="187.8301" x="227.8477" y="482.9126">/v2/albums + filter[id]</text><text fill="#000000" font-family="DejaVu Sans" font-size="17" lengthAdjust="spacing" textLength="400.9194" x="121.303" y="502.7017">include=artists,coverArt; optional countryCode</text></g><g class="message" data-participant-1="API" data-participant-2="A"><polygon fill="#176C78" points="683.2175,538.5,693.2175,542.5,683.2175,546.5,687.2175,542.5" style="stroke:#176C78;stroke-width:1;"/><line style="stroke:#176C78;stroke-width:1.2;" x1="534.2224" x2="689.2175" y1="542.5" y2="542.5"/><text fill="#000000" font-family="DejaVu Sans" font-size="17" font-weight="bold" lengthAdjust="spacing" textLength="11.8286" x="546.2224" y="536.4907">9</text><text fill="#000000" font-family="DejaVu Sans" font-size="17" lengthAdjust="spacing" textLength="121.1665" x="562.051" y="536.4907">get(client, uri)</text></g><g class="message" data-participant-1="A" data-participant-2="T"><polygon fill="#176C78" points="934.575,572.2891,944.575,576.2891,934.575,580.2891,938.575,576.2891" style="stroke:#176C78;stroke-width:1;"/><line style="stroke:#176C78;stroke-width:1.2;" x1="695.2175" x2="940.575" y1="576.2891" y2="576.2891"/><text fill="#000000" font-family="DejaVu Sans" font-size="17" font-weight="bold" lengthAdjust="spacing" textLength="23.6572" x="718.6311" y="570.2798">10</text><text fill="#000000" font-family="DejaVu Sans" font-size="17" lengthAdjust="spacing" textLength="176.873" x="746.2883" y="570.2798">authentifizierter GET</text></g><g class="message" data-participant-1="T" data-participant-2="A"><polygon fill="#176C78" points="706.2175,606.0781,696.2175,610.0781,706.2175,614.0781,702.2175,610.0781" style="stroke:#176C78;stroke-width:1;"/><line style="stroke:#176C78;stroke-width:1.2;stroke-dasharray:2,2;" x1="700.2175" x2="945.575" y1="610.0781" y2="610.0781"/><text fill="#000000" font-family="DejaVu Sans" font-size="17" font-weight="bold" lengthAdjust="spacing" textLength="23.6572" x="707.2175" y="604.0688">11</text><text fill="#000000" font-family="DejaVu Sans" font-size="17" lengthAdjust="spacing" textLength="199.7002" x="734.8748" y="604.0688">data + included + links</text></g><g class="message" data-participant-1="A" data-participant-2="API"><polygon fill="#176C78" points="545.2224,639.8672,535.2224,643.8672,545.2224,647.8672,541.2224,643.8672" style="stroke:#176C78;stroke-width:1;"/><line style="stroke:#176C78;stroke-width:1.2;stroke-dasharray:2,2;" x1="539.2224" x2="694.2175" y1="643.8672" y2="643.8672"/><text fill="#000000" font-family="DejaVu Sans" font-size="17" font-weight="bold" lengthAdjust="spacing" textLength="23.6572" x="559.6863" y="637.8579">12</text><text fill="#000000" font-family="DejaVu Sans" font-size="17" lengthAdjust="spacing" textLength="82.4102" x="587.3435" y="637.8579">Response</text></g><g class="message" data-participant-1="API" data-participant-2="H"><polygon fill="#176C78" points="104.4744,673.6563,94.4744,677.6563,104.4744,681.6563,100.4744,677.6563" style="stroke:#176C78;stroke-width:1;"/><line style="stroke:#176C78;stroke-width:1.2;stroke-dasharray:2,2;" x1="98.4744" x2="533.2224" y1="677.6563" y2="677.6563"/><text fill="#000000" font-family="DejaVu Sans" font-size="17" font-weight="bold" lengthAdjust="spacing" textLength="23.6572" x="282.4968" y="671.647">13</text><text fill="#000000" font-family="DejaVu Sans" font-size="17" lengthAdjust="spacing" textLength="35.0459" x="310.1541" y="671.647">Json</text></g><g class="message" data-participant-1="H" data-participant-2="H"><line style="stroke:#176C78;stroke-width:1.2;" x1="93.4744" x2="135.4744" y1="731.2344" y2="731.2344"/><line style="stroke:#176C78;stroke-width:1.2;" x1="135.4744" x2="135.4744" y1="731.2344" y2="744.2344"/><line style="stroke:#176C78;stroke-width:1.2;" x1="94.4744" x2="135.4744" y1="744.2344" y2="744.2344"/><polygon fill="#176C78" points="104.4744,740.2344,94.4744,744.2344,104.4744,748.2344,100.4744,744.2344" style="stroke:#176C78;stroke-width:1;"/><text fill="#000000" font-family="DejaVu Sans" font-size="17" font-weight="bold" lengthAdjust="spacing" textLength="23.6572" x="100.4744" y="715.3306">14</text><text fill="#000000" font-family="DejaVu Sans" font-size="17" lengthAdjust="spacing" textLength="330.1802" x="128.1316" y="705.436">Ressourcenindex nach "type:id" bilden</text><text fill="#000000" font-family="DejaVu Sans" font-size="17" lengthAdjust="spacing" textLength="214.5088" x="185.9673" y="725.2251">Metadaten-Cursor pr&#252;fen</text></g><g class="message" data-participant-1="H" data-participant-2="H"><line style="stroke:#176C78;stroke-width:1.2;" x1="93.4744" x2="135.4744" y1="811.8125" y2="811.8125"/><line style="stroke:#176C78;stroke-width:1.2;" x1="135.4744" x2="135.4744" y1="811.8125" y2="824.8125"/><line style="stroke:#176C78;stroke-width:1.2;" x1="94.4744" x2="135.4744" y1="824.8125" y2="824.8125"/><polygon fill="#176C78" points="104.4744,820.8125,94.4744,824.8125,104.4744,828.8125,100.4744,824.8125" style="stroke:#176C78;stroke-width:1;"/><text fill="#000000" font-family="DejaVu Sans" font-size="17" font-weight="bold" lengthAdjust="spacing" textLength="23.6572" x="100.4744" y="795.9087">15</text><text fill="#000000" font-family="DejaVu Sans" font-size="17" lengthAdjust="spacing" textLength="322.1533" x="128.1316" y="786.0142">Album.ausRessourcen(id, ressourcen)</text><text fill="#000000" font-family="DejaVu Sans" font-size="17" lengthAdjust="spacing" textLength="195.4751" x="191.4707" y="805.8032">f&#252;r jede Sammlungs-ID</text></g><g class="message" data-participant-1="H" data-participant-2="H"><line style="stroke:#176C78;stroke-width:1.2;stroke-dasharray:2,2;" x1="93.4744" x2="135.4744" y1="858.6016" y2="858.6016"/><line style="stroke:#176C78;stroke-width:1.2;stroke-dasharray:2,2;" x1="135.4744" x2="135.4744" y1="858.6016" y2="871.6016"/><line style="stroke:#176C78;stroke-width:1.2;stroke-dasharray:2,2;" x1="94.4744" x2="135.4744" y1="871.6016" y2="871.6016"/><polygon fill="#176C78" points="104.4744,867.6016,94.4744,871.6016,104.4744,875.6016,100.4744,871.6016" style="stroke:#176C78;stroke-width:1;"/><text fill="#000000" font-family="DejaVu Sans" font-size="17" font-weight="bold" lengthAdjust="spacing" textLength="23.6572" x="100.4744" y="852.5923">16</text><text fill="#000000" font-family="DejaVu Sans" font-size="17" lengthAdjust="spacing" textLength="374.9546" x="128.1316" y="852.5923">AlbumSeite(List&lt;Album&gt;, naechsterCursor)</text></g><path d="M28,888.6016 L28,942.6016 A4,4 0 0 0 32,946.6016 L594,946.6016 A4,4 0 0 0 598,942.6016 L598,894.6016 L588,884.6016 L32,884.6016 A4,4 0 0 0 28,888.6016" fill="#FFF4DC" style="stroke:#BC8B39;stroke-width:0.5;"/><path d="M588,884.6016 L588,892.6016 A2,2 0 0 0 590,894.6016 L598,894.6016 L588,884.6016" fill="#FFF4DC" style="stroke:#BC8B39;stroke-width:0.5;"/><text fill="#000000" font-family="DejaVu Sans" font-size="15" lengthAdjust="spacing" textLength="494.1797" x="34" y="903.5249">JSON-Decodierung in _apiLesen(); Fachobjekte entstehen danach.</text><text fill="#000000" font-family="DejaVu Sans" font-size="15" lengthAdjust="spacing" textLength="549.2651" x="34" y="920.9858">Fehlende Metadaten f&#252;hren zu Ersatzwerten, nicht zu erfundenen Daten.</text><text fill="#000000" font-family="DejaVu Sans" font-size="15" lengthAdjust="spacing" textLength="441.2622" x="34" y="938.4468">In _apiLesen() wird vor dem HTTP-Aufruf 300 ms gewartet.</text><!--SRC=[ZLLDRzj83BthLn3PIuArqpZPtQJjje1iLtKMQHAiZLwQeXXhA6lYCKUTZxXDqR-rfzxonvOZEx4SfqO5wA3XuoFvI8v4y8R2R8msSLD5bR1Y1cEHJoVM198zeus5txBwQI0a5Y9edndovsA6qCThyJx0K91x6ZLKjmYTuuRHbKAQkQ89548xR5ZgoBcnX1PE6kUfjMQ-pAXp_5Vlk6ayKuG_i-LQE9TwRzKuU3pD3TNf73o6T3VgxcJ7sGPJrrY9zgV1pAmoXEH_WUq1kfMnOY8nmKs-aopDkay0csmddUVTzAW1EZV-2Qei-wFVUungydHx9zsZvuyGgyx-sUmiVWv8ERv3vpYTLAi9GSvbhWtPFUfIMAzoLObVKUmffwtQtJkSgGBZY6pNvXvTJzgeLFcKk0Rex1ycfP88XJ5-RBuaNdcDyDuG_3EyE6__oo0JB9S8jm5IFGwpziNu6gSUAQbMgSBEmCpmYZuvL1xFq27jxks0S31OXtqIbLgQhoWBDFNAK0rCBq_NeICbXKw3BuTeRrIE2zGZp6a_FOEB2edTQy0e6K3xTMI35xorivaED75L8IJy3ivO_wejf4IP-YioLOmkD8_N13_amRBzOn9T8mFxJz3lvbfnWriGhDfBqcWPiKLmNdoi2dMhq7B_uUsRKJA2zjApLYybF-U8qUiX9LQKDuDlXJeC7myYsh7WtwJmeWLQqTHzNrGHRGlHJ_iE5AqAigWuVc7q1C7n8Mgw8XAObuwJwTMbW8v29zgO2jxQKB5AC5CUohl_QXWvE3nOyITG8yVAmJlqWhD1QY-PA6YT03IaVNPp-4n4LyUw5afpr0zAVhmYHRaE4b_5DZdlMhcvGPjQ_n8UvCvv4RpzsZCIcNIRtcpThZZ0IlEe7oUpJ23skzPoGRBPW6NaHWlkAnmiOCl9LoJn2v38IzZnNojyeUGEgwGbikGRIbNsxaV1gWEIJEAxtiXz4ToAUbV95jY7Jrw9ukw7XMlaZNneDVScaZHPXd7BTizOtx_hxzSjUDJxlOJu5eEeFGnQSRSM8zd7t4ZMZudZF3NMyILaNA9PB3TdxvcC1MTLO-dx2MHOQYu8LzC1d6rf5tV36-k4lvt7pX1de_BInsEq1LzwoBy2w4SNvZbT2mjpPINSi78IPp0OZIxRQIXiAE3eu01ukYOuvr52ln_LX5ZL_m00]--></g></svg>